<?xml version="1.0" standalone="no"?>
<!DOCTYPE svg PUBLIC "-//W3C//DTD SVG 1.1//EN" "http://www.w3.org/Graphics/SVG/1.1/DTD/svg11.dtd" >
<!--
2013-9-30: Created.
-->
<svg>
<metadata>
Created by iconfont
</metadata>
<defs>

<font id="iconfont" horiz-adv-x="1024" >
  <font-face
    font-family="iconfont"
    font-weight="500"
    font-stretch="normal"
    units-per-em="1024"
    ascent="896"
    descent="-128"
  />
    <missing-glyph />
    
    <glyph glyph-name="huanyihuan" unicode="&#58936;" d="M838.695 521.846A354.62 354.62 0 0 1 512 738.462a354.462 354.462 0 1 1 0-708.924A354.58 354.58 0 0 1 842.161 254.74a39.385 39.385 0 1 0 73.334-28.751A433.31 433.31 0 0 0 512-49.231C272.738-49.23 78.77 144.74 78.77 384S272.737 817.23 512 817.23c144.423 0 275.14-71.285 354.462-183.965V718.77a39.385 39.385 0 0 0 78.769 0v-236.307a39.266 39.266 0 0 0-39.385-39.385H708.923a39.385 39.385 0 0 0 0 78.77h129.772z"  horiz-adv-x="1024" />

    
    <glyph glyph-name="bofang" unicode="&#58888;" d="M540.032 825.024c-245.952 0-446.016-200.064-446.016-446.016S294.08-67.008 540.032-67.008s446.016 200.064 446.016 446.016S785.984 825.024 540.032 825.024z m0-828.032c-210.624 0-382.016 171.392-382.016 382.016s171.392 382.016 382.016 382.016 382.016-171.392 382.016-382.016-171.392-382.016-382.016-382.016zM417.152 252.16c0-35.2 24.96-49.6 55.424-32L692.16 346.944c30.528 17.6 30.528 46.4 0 64L472.576 537.792c-30.528 17.6-55.424 3.2-55.424-32V252.16z"  horiz-adv-x="1024" />

    
    <glyph glyph-name="xiala" unicode="&#59140;" d="M543.744 248.32c-7.168-7.168-16.896-13.824-26.112-11.776-9.216-1.536-17.92 5.632-25.088 11.776L270.848 471.04c-11.264 11.264-11.264 29.696 0 40.96s29.696 11.264 40.96 0l206.336-211.968L724.992 512c11.264 11.264 29.696 11.264 40.96 0s11.264-29.696 0-40.96L543.744 248.32z"  horiz-adv-x="1024" />

    
    <glyph glyph-name="shangxiajiantou" unicode="&#58974;" d="M102.912 460.8c12.8-12.8 31.744-12.8 44.544 0l233.472 230.4v-691.2c0-15.872 15.872-31.744 31.744-31.744s31.744 15.872 31.744 31.744v768c0 15.872-15.872 31.744-31.744 31.744-9.728 0-19.456-3.072-22.528-9.728L102.4 505.344c-12.288-12.288-12.288-31.744 0.512-44.544z m818.176-153.6c-12.8 12.8-31.744 12.8-44.544 0l-233.472-230.4v691.2c0 15.872-15.872 31.744-31.744 31.744s-31.744-15.872-31.744-31.744v-768c0-15.872 15.872-31.744 31.744-31.744 9.728 0 19.456 3.072 22.528 9.728l287.744 284.672c12.288 12.288 12.288 31.744-0.512 44.544z"  horiz-adv-x="1024" />

    
    <glyph glyph-name="yaoyiyao" unicode="&#58949;" d="M417 738.8c1.8 0 5.4 0 7.2-1.8l313.6-71.7c9-1.8 17.9-7.2 21.5-16.1 5.4-9 7.2-17.9 5.4-26.9L637.4 56.1c-3.6-16.1-17.9-28.7-34-28.7-1.8 0-5.4 0-7.2 1.8l-313.6 71.7c-9 1.8-17.9 7.2-21.5 16.1-5.4 9-7.2 17.9-5.4 26.9l129 566.3c1.9 17.9 16.2 28.6 32.3 28.6z m0 35.9c-32.3 0-62.7-23.3-69.9-55.6l-129-566.3c-9-39.4 16.1-77.1 53.8-86l313.6-71.7c5.4-1.8 10.8-1.8 16.1-1.8 32.3 0 62.7 23.3 69.9 55.6l129 566.3c9 39.4-16.1 77.1-53.8 86l-313.6 71.7c-5.3 1.8-10.7 1.8-16.1 1.8M359.7 611.6L745 523.8l-84.2-367.4-383.5 87.8 82.4 367.4z m-26.9 43L232.4 217.3l453.4-103.9 100.4 437.2-453.4 104M603.4 627.7h-3.6L535.3 642c-9 1.8-16.1 12.5-14.3 21.5 1.8 9 12.5 16.1 21.5 14.3l64.5-14.3c9-1.8 16.1-12.5 14.3-21.5-1.8-8.9-8.9-14.3-17.9-14.3zM449.3 99.1c-5.4 0-9 1.8-12.5 5.4-3.6 3.6-5.4 7.2-5.4 12.5 0 5.4 1.8 9 5.4 12.5 7.2 7.2 17.9 7.2 25.1 0 3.6-3.6 5.4-9 5.4-12.5 0-5.4-1.8-9-5.4-12.5-3.7-3.6-9-5.4-12.6-5.4zM741.4 20.2c-9 0-17.9 7.2-17.9 17.9s7.2 17.9 17.9 17.9c95 1.8 98.6 87.8 98.6 98.6s7.2 17.9 17.9 17.9c10.8 0 17.9-7.2 17.9-17.9 0-105.7-87.8-134.4-134.4-134.4zM741.4-64c-9 0-17.9 7.2-17.9 17.9 0 10.8 7.2 17.9 17.9 17.9 7.2 0 182.8 3.6 182.8 182.8 0 10.8 7.2 17.9 17.9 17.9s17.9-7.2 17.9-17.9c0-215-216.8-218.6-218.6-218.6zM166.1 599c-10.8 0-17.9 7.2-17.9 17.9 0 103.9 86 132.6 132.6 132.6 9 0 17.9-7.2 17.9-17.9 0-10.8-7.2-17.9-17.9-17.9-93.2-1.8-96.8-86-96.8-96.8 0.1-10.7-8.9-17.9-17.9-17.9zM81.9 599c-10.7 0-17.9 7.2-17.9 18C64 828.4 277.2 832 279 832c9 0 17.9-7.2 17.9-17.9 0-10.8-7.2-17.9-17.9-17.9-7.2 0-179.2-3.6-179.2-179.2 0-10.8-7.1-18-17.9-18z"  horiz-adv-x="1024" />

    
    <glyph glyph-name="search1" unicode="&#58886;" d="M924.31327975 18.286516939999956l-177.24797232 177.57248318a371.11091474 371.11091474 0 0 1 85.70338633 237.89910114C832.76869376 639.30344302 666.61900107 805.875 461.52797418 805.875 256.37204611 805.875 90.125 639.30344302 90.125 433.75810125c0-205.51289118 166.24704611-372.21425217 371.30562158-372.21425299 91.25252655 0 174.78168777 33.0027811 239.42430285 87.74780658l177.0857169-177.50758117a32.58091598 32.58091598 0 0 1 46.30773641 0 32.87297625 32.87297625 0 0 1 0 46.46999186h0.06490201z m-462.85020758 108.93838183a304.84574451 304.84574451 0 0 0-216.22175794 89.75977542 305.55966907 305.55966907 0 0 0-89.53261715 216.77342707 305.13780396 305.13780396 0 0 0 89.56506858 216.74097564 304.84574451 304.84574451 0 0 0 432.50841787 0 305.59211965 305.59211965 0 0 0 89.50016657-216.74097564 305.13780396 305.13780396 0 0 0-89.56506859-216.77342707 304.84574451 304.84574451 0 0 0-216.25420934-89.75977542z"  horiz-adv-x="1024" />

    
    <glyph glyph-name="icon-" unicode="&#58885;" d="M268.02606186-38.30899283999997a117.44211993 117.44211993 0 0 0-117.28124029 117.2812403L150.74482157 689.0277525399999A117.44211993 117.44211993 0 0 0 268.02606186 806.30899284l488.02831609 0a117.44211993 117.44211993 0 0 0 117.2812403-117.2812403l0-609.97506528a117.44211993 117.44211993 0 0 0-117.2812403-117.28124029z m0 792.97562884a65.79976308 65.79976308 0 0 1-65.71932328-65.71932326l0-609.97506528a65.79976308 65.79976308 0 0 1 65.71932328-65.71932326l488.02831609 0a65.79976308 65.79976308 0 0 1 65.71932328 65.71932326L821.77370123 689.0277525399999a65.79976308 65.79976308 0 0 1-65.71932328 65.71932326zM318.94446042 358.17882159a25.82117841 25.82117841 0 1 0 0 51.56191701l386.11107916 0a25.82117841 25.82117841 0 1 0 0-51.56191701zM318.94446042 236.23207242a25.82117841 25.82117841 0 1 0 0 51.24015779l263.44037172 0a25.82117841 25.82117841 0 1 0 0-51.64235684zM318.94446042 480.52776979a25.82117841 25.82117841 0 1 0 0 51.64235684l386.11107916 0a25.82117841 25.82117841 0 1 0 0-51.64235684z"  horiz-adv-x="1024" />

    
    <glyph glyph-name="jinbi" unicode="&#58890;" d="M517.632-69.632c-9.728 0-19.456 0.512-29.184 1.024-58.88 3.584-115.712 18.432-168.448 44.032-54.784 26.112-102.912 62.976-143.872 109.056-40.448 46.08-70.656 98.304-90.112 156.16-18.432 55.808-26.112 113.664-22.528 172.544S81.92 528.896 107.52 581.632c26.112 54.784 62.976 102.912 109.056 143.872 46.08 40.448 98.304 70.656 156.16 90.112 46.08 15.36 94.72 23.552 143.36 23.552 9.728 0 19.456-0.512 29.184-1.024 58.88-3.584 115.712-18.432 168.448-44.032 54.784-26.112 102.912-62.976 143.872-109.056 48.128-54.272 81.408-118.272 99.328-189.952 3.584-11.264 0.512-23.552-8.192-31.232-5.12-4.608-12.288-7.168-19.456-7.168-8.192 0-16.384 3.584-22.016 9.728-1.536 2.048-2.56 4.096-3.584 5.632v0.512l-1.024 1.024-0.512 2.048c-14.848 61.44-44.544 117.76-88.064 166.912-69.632 78.848-165.888 125.44-269.824 132.096-8.192 0.512-16.896 1.024-25.088 1.024-47.616 0-94.208-8.192-138.24-25.088-44.032-16.896-84.992-41.472-120.832-72.704-79.36-71.168-125.952-166.912-132.608-271.36-6.656-104.448 28.16-205.824 97.28-284.16 69.12-78.848 165.376-125.44 269.824-132.096 8.192-0.512 16.896-1.024 25.088-1.024 47.616 0 94.208 8.192 138.24 25.088 44.032 16.896 84.992 41.472 120.832 72.704 62.976 55.808 105.472 128.512 123.392 210.944v1.024c0.512 6.656 3.584 12.8 8.704 17.92l0.512 0.512 0.512 0.512c5.12 4.608 12.288 7.168 19.456 7.168 7.68 0 14.848-2.56 19.968-7.68 5.632-5.12 8.704-12.8 8.704-20.992v-2.56c-19.968-98.304-69.632-184.832-143.872-249.856-45.568-40.448-98.304-70.656-156.16-90.112-45.056-15.872-93.696-23.552-142.336-23.552zM269.824 591.36h484.352v-38.912h-181.248v-65.536h169.984v-248.32c0-27.136-22.016-48.64-48.64-48.64h-101.376v38.912h9.728c10.752 0 18.944 8.704 18.944 19.456v199.68h-48.64v-318.464H451.072V448h-49.152v-258.048H280.576v296.96h170.496V552.448H269.824v38.912z"  horiz-adv-x="1024" />

    
    <glyph glyph-name="tuan" unicode="&#59254;" d="M768 537.6l-102.4 0 0 102.4c0 14.1312-11.4688 25.6-25.6 25.6s-25.6-11.4688-25.6-25.6l0-102.4L256 537.6c-14.1312 0-25.6-11.4688-25.6-25.6s11.4688-25.6 25.6-25.6l322.2016 0L268.8 176.9984c-10.0096-10.0096-10.0096-26.1888 0-36.1984s26.1888-10.0096 36.1984 0L614.4 450.2016 614.4 128c0-14.1312 11.4688-25.6 25.6-25.6s25.6 11.4688 25.6 25.6L665.6 486.4l102.4 0c14.1312 0 25.6 11.4688 25.6 25.6S782.1312 537.6 768 537.6zM793.6 768 230.4 768C173.8496 768 128 722.1504 128 665.6l0-563.2c0-56.5504 45.8496-102.4 102.4-102.4l563.2 0c56.5504 0 102.4 45.8496 102.4 102.4L896 665.6C896 722.1504 850.1504 768 793.6 768zM844.8 102.4c0-28.2624-22.9376-51.2-51.2-51.2L230.4 51.2c-28.2624 0-51.2 22.9376-51.2 51.2L179.2 665.6c0 28.2624 22.9376 51.2 51.2 51.2l563.2 0c28.2624 0 51.2-22.9376 51.2-51.2L844.8 102.4z"  horiz-adv-x="1024" />

    
    <glyph glyph-name="yaoqing" unicode="&#58942;" d="M706.259 312.685c10.473-8.352 27.239-4.176 35.591 8.352 4.176 6.234 4.176 12.469 4.176 18.763-3.3 8.996-9.049 16.445-16.434 21.755-8.686 3.245-23.334 13.654-40.101 19.889 20.943 20.821 37.712 43.764 48.182 70.819 12.591 29.179 18.885 60.41 18.885 93.702-0.171 128.877-104.687 233.289-233.588 233.289-0.361 0-0.724 0-1.085-0.001-129.844 0-232.442-106.23-232.442-235.343 0-62.467 25.121-120.819 69.125-164.524-133.181-61.787-223.93-194.272-224.146-347.977 0-14.421 10.473-24.833 25.121-24.833 0.292-0.016 0.638-0.020 0.986-0.020 13.34 0 24.153 10.813 24.153 24.153 0 0.306-0.003 0.608-0.018 0.911 0.318 142.473 89.856 263.99 215.707 311.648 75.446-43.057 169.696-40.94 240.938 0.706 23.062-8.352 46.063-18.763 64.951-31.295zM704.143 543.914c0-25.002-4.176-50-14.649-72.878-8.352-20.821-23.062-39.588-39.829-56.233-32.672-32.185-77.55-52.058-127.068-52.058-0.252 0-0.501 0-0.751 0.001-0.069 0-0.198 0-0.326 0-100.223 0-181.517 81.060-181.894 181.194 0.378 100.209 81.67 181.267 181.894 181.267 0.127 0 0.256 0 0.382 0 100.581-0.121 182.239-81.354 182.239-181.292zM901.051 150.223l-96.368 95.822c-5.21 4.841-12.215 7.809-19.913 7.809s-14.705-2.969-19.932-7.826c-4.948-5.228-8.1-12.236-8.411-19.973 0.075-7.129 2.192-13.363 8.428-17.539l50.301-50h-173.845c-14.889-0.231-26.909-12.191-27.239-27.033 0-14.611 12.591-27.084 27.239-27.084h173.845l-50.301-50c-4.967-5.245-8.117-12.253-8.428-19.988 0.075-7.129 2.192-13.363 8.428-17.539 4.176-6.234 12.591-8.352 18.885-8.352 6.294 0 14.649 2.058 18.825 8.352l96.368 95.822c2.117 2.058 4.176 6.234 6.294 8.352 1.008 3.111 1.588 6.694 1.588 10.412 0 3.716-0.58 7.298-1.655 10.657-0.527 3.443-2.361 6.627-4.98 8.939z"  horiz-adv-x="1024" />

    
    <glyph glyph-name="certi" unicode="&#58881;" d="M937.154-88.33299999999997c-1.485 0-2.955 0.46-4.192 1.379l-128.85 94.949-129.726-94.786c-1.238-0.897-2.7-1.359-4.171-1.359-1.089 0-2.191 0.254-3.203 0.764-2.368 1.209-3.868 3.642-3.868 6.305v191.509c0 2.271 1.089 4.405 2.928 5.733 1.223 0.885 2.673 1.337 4.143 1.337 0.743 0 1.498-0.121 2.22-0.361l45.813-15.172c2.977-0.855 5.21-3.579 5.21-6.794v-71.362l76.624 55.959c1.244 0.906 2.708 1.359 4.171 1.359 1.471 0 2.948-0.46 4.192-1.379l75.436-55.583v71.01c0 3.019 1.917 5.698 4.765 6.681l46.188 15.964c0.75 0.26 1.534 0.389 2.305 0.389 1.451 0 2.884-0.447 4.1-1.314 1.867-1.329 2.969-3.472 2.969-5.755v-192.395c0-2.665-1.498-5.113-3.881-6.314-0.996-0.51-2.085-0.764-3.173-0.764zM134.749-55.301000000000045c-60.178 0-109.137 48.959-109.137 109.147v694.208c0 60.188 48.959 109.153 109.137 109.153h605.566c60.199 0 109.173-48.966 109.173-109.153v-216.558c0-3.902-3.162-7.069-7.069-7.069h-44.993c-3.909 0-7.069 3.168-7.069 7.069v216.553c0 27.586-22.447 50.034-50.026 50.034h-605.573c-27.586 0-50.034-22.447-50.034-50.034v-694.194c0-27.58 22.447-50.026 50.034-50.026h470.241c3.909 0 7.069-3.162 7.069-7.069v-44.987c0-3.909-3.162-7.069-7.069-7.069h-470.247zM803.66 95.322c-112.142 0-203.386 91.229-203.386 203.373s91.238 203.38 203.386 203.38c112.151 0 203.401-91.238 203.401-203.38-0.005-112.142-91.252-203.373-203.401-203.373zM803.66 441.741c-78.879 0-143.053-64.173-143.053-143.046 0-78.879 64.173-143.053 143.053-143.053s143.053 64.173 143.053 143.053c0 78.873-64.173 143.046-143.053 143.046zM193.537 135.13300000000004c-3.902 0-7.069 3.162-7.069 7.069v49.213c0 3.909 3.168 7.069 7.069 7.069h356.111c3.909 0 7.069-3.162 7.069-7.069v-49.213c0-3.909-3.162-7.069-7.069-7.069h-356.111zM803.691 210.78700000000003c-48.471 0-87.913 39.436-87.913 87.907s39.436 87.907 87.913 87.907c48.465 0 87.907-39.436 87.907-87.907s-39.442-87.907-87.907-87.907zM803.691 349.37199999999996c-27.94 0-50.669-22.737-50.669-50.677s22.731-50.677 50.669-50.677c27.934 0 50.663 22.737 50.663 50.677s-22.731 50.677-50.663 50.677zM193.537 291.64599999999996c-3.902 0-7.069 3.162-7.069 7.069v49.213c0 3.909 3.168 7.069 7.069 7.069h356.111c3.909 0 7.069-3.162 7.069-7.069v-49.213c0-3.909-3.162-7.069-7.069-7.069h-356.111zM193.537 446.901c-3.902 0-7.069 3.168-7.069 7.069v49.213c0 3.902 3.168 7.069 7.069 7.069h356.111c3.909 0 7.069-3.168 7.069-7.069v-49.213c0-3.902-3.162-7.069-7.069-7.069h-356.111zM193.537 603.422c-3.902 0-7.069 3.168-7.069 7.069v49.206c0 3.902 3.168 7.069 7.069 7.069h488.028c3.909 0 7.069-3.168 7.069-7.069v-49.206c0-3.902-3.162-7.069-7.069-7.069h-488.028z"  horiz-adv-x="1024" />

    
    <glyph glyph-name="fenxiangyoushang" unicode="&#58992;" d="M330.7 214.8c-13.3 0-24.2 10.8-24.2 24.2v84.6h-48.3c-13.3 0-24.2 10.8-24.2 24.2 0 13.4 10.8 24.2 24.2 24.2h48.3v24.2h-60.4c-13.3 0-24.2 10.8-24.2 24.2 0 13.4 10.8 24.2 24.2 24.2H260L248.2 471c-5.4 12.2 0 26.5 12.3 31.9 12.1 5.5 26.4 0 31.9-12.2l18.7-42c0.6-1.4 1.1-2.7 1.4-4.1h37.6c0.2 0.9 0.6 1.8 0.9 2.7l17.8 42.9c5.1 12.3 19.3 18.1 31.6 13.1 12.3-5.1 18.2-19.3 13.1-31.6l-11.2-27h25.1c13.3 0 24.2-10.8 24.2-24.2 0-13.4-10.8-24.2-24.2-24.2h-72.5v-24.2h48.3c13.3 0 24.2-10.8 24.2-24.2 0-13.4-10.8-24.2-24.2-24.2h-48.3V239c0-13.4-10.8-24.2-24.2-24.2zM330.7 106C184.1 106 64.8 225.3 64.8 371.9s119.3 265.9 265.9 265.9 265.9-119.3 265.9-265.9S477.3 106 330.7 106z m0 483.4c-119.9 0-217.5-97.6-217.5-217.5s97.6-217.5 217.5-217.5S548.2 252 548.2 371.9s-97.5 217.5-217.5 217.5zM704.1 121.9L515.8 216l21.6 43.2 188.3-94.1-21.6-43.2zM541.6 483.4l-26.8 40.2L700 647.1l26.8-40.2-185.2-123.5zM803.4-23.4c-77.3 0-140.2 62.9-140.2 140.2 0 77.3 62.9 140.2 140.2 140.2s140.2-62.9 140.2-140.2c0-77.3-62.9-140.2-140.2-140.2z m0 232c-50.6 0-91.8-41.2-91.8-91.8 0-50.6 41.2-91.8 91.8-91.8 50.6 0 91.8 41.2 91.8 91.8 0 50.6-41.2 91.8-91.8 91.8zM790 565.3c-66.6 0-120.9 54.2-120.9 120.9S723.3 807 790 807s120.9-54.2 120.9-120.9S856.6 565.3 790 565.3z m0 193.3c-40 0-72.5-32.5-72.5-72.5s32.5-72.5 72.5-72.5 72.5 32.5 72.5 72.5-32.5 72.5-72.5 72.5z"  horiz-adv-x="1024" />

    
    <glyph glyph-name="meiriyingxiao" unicode="&#58980;" d="M917.76 816.0768h-185.4976V864a32 32 0 0 1-63.9488 0v-47.9232H356.2496V864a32 32 0 0 1-64 0v-47.9232H106.8032A106.8032 106.8032 0 0 1 0 709.2736v-713.728c0-58.9824 47.8208-106.8032 106.8032-106.8032h810.9568a106.8032 106.8032 0 0 1 105.472 106.8032V709.2736a106.8032 106.8032 0 0 1-105.472 106.8032zM106.8032 752.0768h185.4464v-47.9232a32 32 0 1 1 64 0V752.128h312.064v-47.9744a32 32 0 0 1 64 0v47.9232h185.4464c23.6544 0 42.8544-19.1488 42.8544-42.8032v-106.8544H63.9488V709.2736c0 23.6544 19.2 42.8544 42.8544 42.8544z m810.9568-799.3856H106.8032a42.8544 42.8544 0 0 0-42.8544 42.8544V538.5216h895.3856v-542.976c0-23.1936-18.432-42.1888-41.5744-42.8544zM453.4272 323.584l-1.28-8.3456 8.96-28.16h8.2944l41.5744 17.3056h1.28v-202.0864h62.6688v269.2096h-46.6432l-74.8544-47.9232z"  horiz-adv-x="1024" />

    
    <glyph glyph-name="liwu" unicode="&#58961;" d="M924.65 73.49V379.819c21.098 12.18 35.258 34.956 35.258 61.08V518.98c0 38.886-31.565 70.503-70.51 70.503h-92.732c2.032 1.216 4.05 2.44 6.052 3.678 42.711 26.396 71.222 52.74 79.845 81.858 8.915 30.107-5.239 57.456-38.946 76.967-38.894 22.514-86.875 25.088-141.296 12.032-38.81-9.31-79.631-26.254-121.082-48.621-22.441-12.11-43.67-25.062-63.065-38.024a704.27 704.27 0 0 1-13.084-8.952c-6.86 6.13-13.868 12.185-21.048 18.104-60.103 49.557-120.3 82.09-178.51 89.178-47.314 5.762-91.12-5.932-128.965-37.111l-2.71-2.625a117.28 117.28 0 0 1-3.529-4.212c-38.202-47.887-20.66-97.891 27.162-142.272h-60.288c-39.052 0-70.51-31.547-70.51-70.503v-78.08c0-26.059 14.186-48.836 35.259-61.038V73.49c0-51.97 42.048-93.82 94.055-93.82h634.591c52.094 0 94.052 41.938 94.052 93.82zM603.6 674.134c38.15 20.587 75.377 36.038 109.708 44.274 43.728 10.49 79.85 8.552 106.716-7 16.35-9.464 19.62-15.78 17.452-23.097-4.27-14.422-26.195-34.68-59.514-55.272-14.854-9.18-30.887-17.828-46.931-25.64-9.612-4.68-17.025-8.011-21.11-9.733a23.38 23.38 0 0 1-10.128-8.185H578.457a23.325 23.325 0 0 1-4.478 8.63c-1.253 1.521-3.535 4.21-6.778 7.9-5.322 6.056-11.46 12.78-18.347 20.007a783.54 783.54 0 0 1-9.052 9.324c1.47 1 2.979 2.016 4.531 3.054 18.232 12.185 38.218 24.38 59.268 35.738z m-330.538-82.47c-2.226 1.239-6.499 3.819-12.117 7.562-9.45 6.296-18.9 13.42-27.631 21.153-35 30.994-45.434 58.057-26.205 82.16 0.3 0.378 0.637 0.76 0.954 1.138 27.187 21.762 57.553 29.629 91.773 25.462 47.482-5.783 100.45-34.408 154.26-78.775 21.828-17.998 42.268-37.337 60.69-56.67a700.147 700.147 0 0 0 3.98-4.212H276.31a23.665 23.665 0 0 1-3.246 2.183z m-159.36-72.684c0 13.1 10.464 23.594 23.499 23.594h752.196c12.942 0 23.5-10.575 23.5-23.594v-78.08c0-6.304-2.428-12-6.394-16.217a23.588 23.588 0 0 1-5.36 0.62H125.456c-1.825 0-3.6-0.215-5.307-0.608-3.988 4.23-6.445 9.931-6.445 16.205v78.08z m82.301-492.401c-26.07 0-47.043 20.874-47.043 46.911V370.397h728.677V73.49c0-25.993-20.93-46.911-47.044-46.911h-634.59z"  horiz-adv-x="1024" />

    
    <glyph glyph-name="shezhi" unicode="&#58884;" d="M881 384c0 52.4 32.9 96.8 79 114.5-11 43.2-28 83.9-50.2 121.3C864.6 599.7 810 607.9 773 645c-37 37-45.2 91.7-25.1 136.8C710.4 804 669.7 821 626.5 832c-17.8-46.1-62.2-79-114.5-79-52.4 0-96.8 32.9-114.5 79-43.2-11-83.9-28-121.3-50.2 20.1-45.2 11.9-99.8-25.1-136.8-37-37-91.7-45.2-136.8-25.2C92 582.4 75 541.7 64 498.5c46.1-17.8 79-62.2 79-114.5 0-52.4-32.9-96.8-79-114.5 11-43.2 28-83.9 50.2-121.3C159.4 168.3 214 160.1 251 123c37-37 45.2-91.7 25.1-136.8C313.6-36 354.3-53 397.5-64c17.8 46.1 62.2 79 114.5 79 52.4 0 96.8-32.9 114.5-79 43.2 11 83.9 28 121.3 50.2-20.1 45.2-11.9 99.8 25.1 136.8 37 37 91.7 45.2 136.8 25.2C932 185.6 949 226.3 960 269.5c-46.1 17.7-79 62.1-79 114.5zM512 261c-67.9 0-123 55.1-123 123s55.1 123 123 123 123-55.1 123-123-55.1-123-123-123z"  horiz-adv-x="1024" />

    
    <glyph glyph-name="bangzhu" unicode="&#58887;" d="M512-125.724C230.514-125.724 2.276 102.514 2.276 384S230.514 893.724 512 893.724 1021.724 665.486 1021.724 384 793.486-125.724 512-125.724z m0 67.925c243.94 0 441.8 197.746 441.8 441.799S755.94 825.8 512 825.8 70.2 627.94 70.2 384 268.06-57.8 512-57.8zM525.198 633.173c46.422 0 84.082-12.288 113.095-38.457 29.014-25.372 43.463-60.188 43.463-103.651 0-35.499-9.443-65.195-27.534-88.405-6.485-7.965-26.851-26.852-60.87-56.548-13.768-11.605-23.894-24.69-30.493-37.66-7.965-14.45-11.606-30.493-11.606-47.9v-12.289h-77.596v12.288c0 26.852 4.323 50.062 14.45 68.836 9.443 20.252 36.977 50.062 81.92 89.884l12.288 13.767c13.084 16.726 20.252 34.02 20.252 52.907 0 25.372-7.282 44.942-21.049 59.392-14.45 14.45-35.498 21.731-61.667 21.731-32.655 0-56.548-10.126-70.998-31.175-13.084-17.408-19.57-42.097-19.57-73.955h-76.117c0 52.906 15.246 94.208 45.625 124.7 30.72 31.29 72.818 46.535 126.407 46.535z m-12.97-424.05c15.246 0 28.216-4.323 38.456-14.45 10.127-9.443 15.247-21.73 15.247-36.977 0-15.246-5.803-27.534-15.93-37.66-10.125-9.444-23.21-14.45-37.66-14.45-14.45 0-27.534 5.12-37.66 15.246-10.126 10.126-15.246 22.528-15.246 36.978 0 15.246 5.12 27.534 15.246 36.978 9.899 10.012 22.983 14.336 37.547 14.336z"  horiz-adv-x="1024" />

    
    <glyph glyph-name="liquan" unicode="&#58973;" d="M783.058824 766.494118a141.552941 141.552941 0 0 0 141.402352-135.077647L924.611765 624.941176v-141.552941H903.529412a69.270588 69.270588 0 0 1-4.728471-138.390588L903.529412 344.847059h21.082353V143.058824a141.552941 141.552941 0 0 0-135.077647-141.402353L783.058824 1.505882H240.941176a141.552941 141.552941 0 0 0-141.402352 135.077647L99.388235 143.058824v201.788235H120.470588a69.270588 69.270588 0 0 1 4.728471 138.390588L120.470588 483.388235h-21.082353V624.941176a141.552941 141.552941 0 0 0 135.077647 141.402353L240.941176 766.494118h542.117648z m0-42.164706H240.941176a99.388235 99.388235 0 0 1-99.237647-93.756236L141.552941 624.941176v-101.406117l2.078118-0.39153a111.525647 111.525647 0 0 0 87.642353-97.039058l0.481882-6.053647L231.905882 414.117647a111.495529 111.495529 0 0 0-82.733176-107.700706l-5.541647-1.325176-2.078118-0.361412V143.058824a99.388235 99.388235 0 0 1 88.184471-98.785883l5.571764-0.451765L240.941176 43.670588h542.117648a99.388235 99.388235 0 0 1 99.237647 93.756236L882.447059 143.058824v161.671529l-2.078118 0.361412a111.525647 111.525647 0 0 0-87.642353 97.039059l-0.481882 6.053647L792.094118 414.117647a111.495529 111.495529 0 0 0 82.733176 107.700706l5.541647 1.325176 2.078118 0.39153V624.941176a99.388235 99.388235 0 0 1-88.184471 98.785883l-5.571764 0.451765L783.058824 724.329412z m-421.647059-150.588236a21.082353 21.082353 0 0 0 21.082353-21.082352V233.411765a21.082353 21.082353 0 0 0-42.164706 0V552.658824a21.082353 21.082353 0 0 0 21.082353 21.082352zM671.623529 293.647059a21.082353 21.082353 0 0 0 0-42.164706h-168.658823a21.082353 21.082353 0 0 0 0 42.164706h168.658823z m0 210.823529a21.082353 21.082353 0 0 0 0-42.164706h-168.658823a21.082353 21.082353 0 0 0 0 42.164706h168.658823z"  horiz-adv-x="1024" />

    
    <glyph glyph-name="return" unicode="&#58951;" d="M646.4 67.2L316.8 400l332.8 300.8c22.4 22.4 22.4 54.4 3.2 76.8-19.2 19.2-54.4 19.2-76.8-3.2L214.4 444.8c-12.8-12.8-19.2-28.8-16-44.8 0-16 3.2-32 16-44.8L576-6.4c22.4-22.4 54.4-22.4 76.8-3.2 16 22.4 16 54.4-6.4 76.8z"  horiz-adv-x="1024" />

    
    <glyph glyph-name="book" unicode="&#58882;" d="M841.322 808.911h-3.9L541.113 728.1v0.031h-57.292L186.577 809.197h-3.898c-47.329 0-85.833-38.504-85.833-85.834v-595.568c0-22.92 8.948-43.111 25.875-58.393 12.931-11.674 30.025-20.311 52.204-26.391 1.558-0.43 156.07-43.113 307.962-83.951l0.956-0.258h55.15l2.121 0.559c154.5 40.689 306.48 82.951 308.012 83.379l1.078 0.322c21.422 6.861 37.787 15.387 50.029 26.064 17.613 15.363 26.922 35.551 26.922 58.381v595.57c-0.001 47.328-38.505 85.834-85.833 85.834zM190.375 99.152c-35.303 9.676-35.303 22.967-35.303 28.643V723.363c0 14.134 10.678 25.822 24.39 27.421l303.424-82.752v-648.673c-146.655 39.502-290.952 79.362-292.511 79.793z m678.553 28.356c0-5.154 0-17.191-35.969-28.826-9.916-2.756-147.693-41.006-291.846-79.1V667.746l303.424 82.751c13.713-1.599 24.391-13.287 24.391-27.421v-595.568z"  horiz-adv-x="1024" />

    
    <glyph glyph-name="discover" unicode="&#58880;" d="M773.585455 769.070545a34.909091 34.909091 0 0 0-39.284364-57.716363 393.541818 393.541818 0 0 1-190.603636 67.025454 395.636364 395.636364 0 0 1-426.030546-362.682181 395.589818 395.589818 0 0 1 362.589091-426.030546 395.636364 395.636364 0 0 1 426.077091 362.635636 393.774545 393.774545 0 0 1-66.792727 253.626182 34.909091 34.909091 0 1 0 57.716363 39.191273 463.592727 463.592727 0 0 0 78.661818-298.402909c-20.573091-256.232727-245.015273-447.255273-501.201454-426.635636-256.232727 20.573091-447.301818 244.968727-426.635636 501.201454C68.654545 677.515636 293.050182 868.538182 549.236364 847.918545c81.454545-6.516364 158.161455-33.838545 224.302545-78.848zM681.332364 570.181818c11.357091 0 20.48-11.822545 15.406545-23.552l-88.436364-204.334545c-5.12-11.869091-12.288-22.993455-21.922909-32.674909a103.796364 103.796364 0 0 0-33.140363-22.155637l-203.869091-88.203636a16.896 16.896 0 0 0-22.155637 22.155636l88.203637 203.869091a103.330909 103.330909 0 0 0 54.784 55.016727l204.381091 88.436364A17.082182 17.082182 0 0 0 681.332364 570.181818zM579.490909 451.490909l-81.501091-35.234909a34.304 34.304 0 0 1-11.031273-7.261091 35.048727 35.048727 0 0 1-7.26109-10.984727l-35.281455-81.547637 81.082182 35.048728a35.653818 35.653818 0 0 1 11.496727 7.493818 34.117818 34.117818 0 0 1 7.168 10.891636l35.374546 81.640728z"  horiz-adv-x="1024" />

    
    <glyph glyph-name="mine" unicode="&#58883;" d="M909.941-12.54c-7.472 111.62-62.636 215.47-151.338 284.934l-5.332 3.683-0.048-0.072c-5.045 3.085-10.796 4.735-16.715 4.735-20.337 0-32.472-9.804-32.472-26.231 0-9.565 4.423-18.556 11.848-24.654l-0.084-0.143 4.71-3.372c74.39-53.18 116.271-133.834 124.473-239.763l0.088-1.156a32.64 32.64 0 0 1-0.12-2.696c0-17.9 14.51-32.413 32.412-32.413 17.3 0 31.432 13.554 32.361 30.622h0.645l-0.428 6.527zM805.555 530.34c0 161.142-132.675 292.25-295.765 292.25S214.023 691.482 214.023 530.34c0-86.823 38.39-167.813 105.68-223.648C198.91 242.226 118.734 119.247 109.66-16.524l-0.374-5.66c-0.007-0.118-0.017-0.233-0.023-0.352l-0.034-0.516h0.02c-0.008-0.275-0.02-0.55-0.02-0.828 0-15.176 12.303-27.48 27.48-27.48s27.482 12.303 27.482 27.48c0 0.278-0.013 0.553-0.02 0.828h0.57l0.43 5.644c9.96 129.028 91.738 242.012 208.632 288.568 34.898-16.212 88.175-33.094 135.962-33.094 44.273 0 87.267 9.757 128.204 29.22l29.985 17.408 24.486 16.07c71.878 55.952 113.114 139.644 113.114 229.576zM509.789 296.913c-130.32 0-236.333 104.734-236.333 233.45 0 128.695 106.014 233.404 236.333 233.404 130.331 0 236.357-104.71 236.357-233.404 0-128.717-106.026-233.45-236.357-233.45z"  horiz-adv-x="1024" />

    
    <glyph glyph-name="Clock" unicode="&#58901;" d="M512-32c-229.76 0-416 186.24-416 416S282.24 800 512 800s416-186.24 416-416-186.24-416-416-416z m0 64a352 352 0 1 1 0 704 352 352 0 0 1 0-704z m32 341.333333h117.333333a32 32 0 1 0 0-64H512a32 32 0 0 0-32 32V554.666667a32 32 0 1 0 64 0v-181.333334z"  horiz-adv-x="1024" />

    
    <glyph glyph-name="fire" unicode="&#59487;" d="M475.136 312.832c-96.256-58.88-129.024-182.272-71.168-282.624 16.384-27.648 37.888-52.224 54.784-79.872 6.656-10.752 13.312-29.184 8.192-37.888-5.12-9.216-25.088-15.872-36.352-13.824-24.576 4.608-49.152 14.336-72.192 24.576-100.864 45.568-189.44 105.472-238.08 209.92-51.712 111.616-41.984 287.232 79.36 390.656 53.248 45.056 107.52 89.6 158.208 137.216 46.08 43.008 69.12 98.304 72.704 161.792 2.048 35.328 18.432 45.056 51.2 31.744 112.128-45.568 200.192-116.224 239.104-236.032 4.096-12.8 6.656-26.624 8.704-39.936 2.048-13.312 2.56-26.624 3.584-40.448 33.792 18.944 38.4 18.944 66.048-9.216 49.152-49.152 91.648-102.912 117.248-168.96 51.2-130.048 24.064-245.248-81.92-336.384-61.952-53.248-133.12-91.648-208.384-123.392-8.192-3.584-18.432-4.096-27.648-4.096-35.84 0-45.568 19.968-29.184 51.712 15.36 30.208 30.208 60.928 38.912 93.184 10.24 37.376-3.072 71.68-29.696 100.864-23.552 25.6-47.616 51.712-65.536 81.408-15.872 27.136-25.088 58.88-37.888 89.6z m294.912 169.984c-12.288-13.312-22.016-26.112-33.792-36.352-14.336-12.8-27.648-35.328-51.712-22.016-24.064 13.312-12.8 35.84-9.216 55.296 27.136 152.064-74.752 268.288-193.024 312.832-10.24-88.576-59.392-154.112-125.952-208.896-25.6-20.992-50.688-43.008-77.312-62.976-81.92-62.976-132.608-139.776-132.608-248.832 0-130.048 98.816-240.64 217.6-285.696-4.096 8.192-7.168 14.848-10.24 21.504-23.04 49.152-41.984 99.84-33.28 155.136C337.92 275.968 409.6 349.184 505.856 401.92c8.704 4.608 26.624 2.56 34.304-3.584 6.144-4.608 7.168-22.016 4.096-31.744-11.776-33.792-10.752-66.56 7.68-96.256 16.384-26.624 34.816-52.736 56.832-75.264 58.368-59.904 76.288-126.976 46.08-205.824-1.536-4.096-1.024-8.704-2.048-12.8l5.12-5.12c46.08 30.208 94.72 57.344 137.216 91.648 64.512 52.736 103.936 119.808 91.136 207.36-13.312 83.456-58.368 150.528-116.224 212.48z"  horiz-adv-x="1024" />

    
    <glyph glyph-name="hat" unicode="&#58979;" d="M1005.17065008 537.3219271099999a129.93118815 129.93118815 0 0 1-70.65023527 115.76206222L570.70337897 841.73421986a130.48945778 130.48945778 0 0 1-119.98792059 0L86.64962845 653.0852029600001a130.48945778 130.48945778 0 0 1 0-231.52533807l75.68437096-39.20873245V95.95638518999999A37.28270222 37.28270222 0 0 1 188.86637038 60.22712889000002l270.42338133-140.12082253a111.84810667 111.84810667 0 0 1 102.90122903 0L832.55125334 60.22712889000002a37.28270222 37.28270222 0 0 1 26.5954797 35.7292563V382.34870519000003l71.4585126 37.28270222v-163.85699082a37.28270222 37.28270222 0 0 1 74.56540444 0V537.3219271099999zM784.58132859 119.31875556L527.89016653-13.716897190000054a37.28270222 37.28270222 0 0 0-34.2996006 0l-256.69116207 133.03808V343.69824236l213.81605452-110.85293036a130.48945778 130.48945778 0 0 1 119.98792059 0l213.87794962 110.85293036z m115.88706608 368.41547852l-364.06461629-188.65023052a55.92405333 55.92405333 0 0 0-51.38871941 0L120.95165631 487.7354477a55.92405333 55.92405333 0 0 0 0 99.42053926l364.06461628 188.40143645a55.92405333 55.92405333 0 0 0 51.38871942 0l364.0646163-188.65023052a55.92405333 55.92405333 0 0 0 0-99.42053926z"  horiz-adv-x="1024" />

    
    <glyph glyph-name="next" unicode="&#58899;" d="M363.712 603.712a40 40 0 0 0 56.576 56.576l260.224-260.224a56 56 0 0 0 0-79.2l-260.224-260.224a40 40 0 0 0-56.576 56.576l243.232 243.232-243.232 243.232z"  horiz-adv-x="1024" />

    
    <glyph glyph-name="acount" unicode="&#59605;" d="M838.129732 741.230054l0 44.851511c0 14.804171-11.990079 26.816762-26.795273 26.816762L221.592864 812.898327c-14.806217 0-26.796296-12.010545-26.796296-26.816762l0-44.665269-5.234211 0c-68.562539 0-124.340913-55.779398-124.340913-124.320447l0-537.65531c0-68.560492 55.779398-124.33989 124.340913-124.33989l644.877333 0c68.540026 0 124.33989 55.779398 124.33989 124.33989l0 537.65531C958.780603 684.386418 904.982326 739.24791 838.129732 741.230054L838.129732 741.230054zM905.150148 617.095849l0-161.625074-67.019393 0L838.130755 687.430754C875.371938 685.449633 905.150148 654.819009 905.150148 617.095849L905.150148 617.095849zM248.388137 759.288339l536.152073 0 0-303.817564L248.388137 455.470775 248.388137 759.288339 248.388137 759.288339zM189.561333 687.806307l5.234211 0 0-232.335533-71.482031 0c-1.542122 0-3.003404-0.189312-4.462638-0.437975L118.850875 617.095849C118.852922 656.069489 150.570297 687.806307 189.561333 687.806307L189.561333 687.806307zM834.440713 8.711661 189.561333 8.711661c-38.992059 0-70.708412 31.736818-70.708412 70.728878L118.852922 402.319228c1.459235-0.25071 2.920516-0.437975 4.462638-0.437975l98.277304 0 589.742619 0 93.814666 0 0-322.43969C905.150148 40.44848 873.431749 8.711661 834.440713 8.711661L834.440713 8.711661zM575.058175 623.664452c9.17394 0 16.641005 7.445576 16.641005 16.619516 0 9.195429-7.467065 16.619516-16.641005 16.619516l-35.095309 0 33.322943 33.322943c6.483668 6.506181 6.483668 17.015535 0 23.499204-6.483668 6.507204-17.015535 6.507204-23.500227 0l-41.204447-41.182958-41.204447 41.182958c-6.483668 6.507204-17.015535 6.507204-23.478737 0-6.507204-6.483668-6.507204-16.995069 0-23.499204l33.299407-33.322943-35.093263 0c-9.174963 0-16.620539-7.423063-16.620539-16.619516 0-9.17394 7.445576-16.619516 16.620539-16.619516l49.857525 0 0-33.216519-49.857525 0c-9.174963 0-16.620539-7.445576-16.620539-16.641005 0-9.174963 7.445576-16.619516 16.620539-16.619516l49.857525 0 0-44.311205c0-9.195429 7.445576-16.617469 16.619516-16.617469 9.17394 0 16.619516 7.42204 16.619516 16.617469l0 44.311205 49.860595 0c9.17394 0 16.641005 7.443529 16.641005 16.619516 0 9.194406-7.467065 16.641005-16.641005 16.641005l-49.857525 0L525.20372 623.664452 575.058175 623.664452 575.058175 623.664452z"  horiz-adv-x="1024" />

    
    <glyph glyph-name="bag" unicode="&#58993;" d="M929.4 23H94.6c-16.6 0-30 13.4-30 30V608.9c0 16.6 13.4 30 30 30h834.8c16.6 0 30-13.4 30-30V53c0-16.6-13.4-30-30-30z m-804.8 60h774.8V578.9H124.6V83z m407 207h-39.3c-32.8 0-59.4 24.4-59.4 54.3v95.2c0 29.9 26.6 54.3 59.4 54.3h39.3c32.8 0 59.4-24.4 59.4-54.3v-95.2c0-29.9-26.6-54.3-59.4-54.3z m-38.7 60H531v83.8h-38.1V350zM531.6 290h-39.3c-32.7 0-59.4 24.4-59.4 54.3v95.2c0 30 26.6 54.3 59.4 54.3h39.3c32.8 0 59.4-24.4 59.4-54.3v-95.2c0-30-26.6-54.3-59.4-54.3zM493 350h38v83.8h-38V350zM634.8 578.9c-16.6 0-30 13.4-30 30v55c0 11.6-9.5 21-21.1 21H440.3c-11.6 0-21.1-9.4-21.1-21v-55c0-16.6-13.4-30-30-30s-30 13.4-30 30v55c0 44.7 36.4 81 81.1 81h143.4c44.7 0 81.1-36.3 81.1-81v-55c0-16.6-13.5-30-30-30zM929.4 373.8H571.3c-16.6 0-30 13.4-30 30s13.4 30 30 30h358.1c16.6 0 30-13.4 30-30s-13.4-30-30-30zM452.7 370.7H94.6c-16.6 0-30 13.4-30 30s13.4 30 30 30h358.1c16.6 0 30-13.4 30-30s-13.4-30-30-30z"  horiz-adv-x="1024" />

    
    <glyph glyph-name="lesson" unicode="&#58995;" d="M866.011429 893.659429c-13.312 2.194286-26.331429 1.755429-39.716572 1.755428H175.177143C145.993143 895.414857 116.882286 880.64 98.889143 856.210286 82.797714 834.194286 73.728 808.448 73.728 780.434286v-778.093715c0-29.257143 9.874286-55.734857 27.062857-78.262857 17.700571-23.04 46.665143-36.644571 74.532572-36.644571h651.922285c14.189714 0 27.721143-0.292571 41.764572 2.340571a95.085714 95.085714 0 0 1 56.100571 36.937143c16.091429 21.942857 24.868571 47.323429 25.161143 75.264V779.117714c0 52.443429-32.914286 106.057143-84.333714 114.541715z m26.770285-898.56c-0.146286-0.219429-1.097143-6.582857-1.462857-8.338286a91.428571 91.428571 0 0 0-2.779428-8.996572 91.867429 91.867429 0 0 0-3.072-5.924571l-3.949715-6.363429a92.16 92.16 0 0 0-4.096-4.608c-0.950857-1.024-4.096-3.657143-5.266285-4.754285-2.048-1.462857-4.169143-2.706286-6.290286-3.949715l-1.316572-0.731428-1.755428-0.731429a67.510857 67.510857 0 0 0-8.704-2.413714l-3.657143-0.219429H173.568a55.222857 55.222857 0 0 0-3.657143 0.219429c-0.365714 0-0.731429 0.146286-1.243428 0.292571a62.171429 62.171429 0 0 0-8.777143 2.633143l-3.145143 1.682286a64.365714 64.365714 0 0 0-6.217143 4.169143l-0.585143 0.438857a77.385143 77.385143 0 0 0-4.461714 4.534857c-0.950857 1.024-3.510857 4.388571-4.534857 5.632a94.939429 94.939429 0 0 0-3.218286 5.558857c-0.731429 1.316571-2.56 5.705143-3.145143 7.021715a110.592 110.592 0 0 0-3.291428 13.312 93.110857 93.110857 0 0 0-0.365715 8.411428V780.946286c0 2.56 0.146286 5.12 0.292572 7.606857l0.365714 2.340571c0.438857 2.340571 0.950857 4.608 1.536 6.875429 0.365714 1.536 2.194286 6.436571 2.56 7.68 0.877714 1.901714 1.828571 3.730286 2.852571 5.632 0.731429 1.316571 3.437714 5.339429 4.022858 6.436571a99.913143 99.913143 0 0 0 8.045714 8.338286 57.417143 57.417143 0 0 0 7.533714 4.827429l1.316572 0.731428a55.734857 55.734857 0 0 0 8.265142 2.633143c0.731429 0 5.778286 0.731429 7.533715 0.731429h673.572571a67.730286 67.730286 0 0 0 4.754286-0.146286l1.755428-0.292572c2.925714-0.658286 5.851429-1.609143 8.630858-2.633142 1.609143-0.804571 3.072-1.682286 4.608-2.56 1.170286-0.731429 4.681143-3.364571 5.851428-4.169143a73.654857 73.654857 0 0 0 8.630857-9.801143 99.913143 99.913143 0 0 0 5.851429-10.898286 105.325714 105.325714 0 0 0 3.803428-14.921143 109.714286 109.714286 0 0 0 0.365715-8.484571v-778.898286c0-2.340571-0.146286-4.608-0.292572-6.875428z m-641.462857 306.541714h372.443429c15.579429 0 28.525714 13.165714 28.525714 28.964571a29.037714 29.037714 0 0 1-28.525714 28.891429H251.245714a28.964571 28.964571 0 0 1 0-57.856z m521.362286-92.745143H251.245714a28.964571 28.964571 0 0 1 0-57.782857h521.508572c15.506286 0 28.525714 13.092571 28.525714 28.818286a29.037714 29.037714 0 0 1-28.525714 28.964571z m-493.056 311.588571a55.442286 55.442286 0 0 1 55.076571 55.661715 55.442286 55.442286 0 0 1-55.076571 55.661714 55.442286 55.442286 0 0 1-55.076572-55.588571 55.369143 55.369143 0 0 1 55.076572-55.734858z m223.451428 0a55.442286 55.442286 0 0 1 55.076572 55.661715 55.442286 55.442286 0 0 1-55.076572 55.661714 55.369143 55.369143 0 0 1-55.076571-55.588571 55.369143 55.369143 0 0 1 55.076571-55.734858z m223.451429 0a55.442286 55.442286 0 0 1 55.076571 55.661715 55.442286 55.442286 0 0 1-55.076571 55.661714 55.442286 55.442286 0 0 1-55.076571-55.588571 55.442286 55.442286 0 0 1 55.076571-55.734858z"  horiz-adv-x="1024" />

    
    <glyph glyph-name="messagemanagement" unicode="&#58981;" d="M187.56352 804.266667l369.834667-388.096c17.92-16.981333 45.909333-16.981333 63.744 0l383.146666 388.096h-816.64z m914.090667-27.306667L676.438187 349.696a131.669333 131.669333 0 0 0-182.784 0L89.600853 781.824a49.066667 49.066667 0 0 1-4.266666-22.442667v-712.96a42.666667 42.666667 0 0 1 37.888-44.885333h940.629333a42.069333 42.069333 0 0 1 42.752 44.885333V755.882667a25.173333 25.173333 0 0 1-4.266667 17.578666l-0.597333 3.413334zM128.000853 896h935.765334a128.170667 128.170667 0 0 0 127.488-129.536v-720.042667a128.170667 128.170667 0 0 0-123.221334-130.986666H128.000853a127.488 127.488 0 0 0-127.402666 126.037333V755.882667A128.170667 128.170667 0 0 0 123.734187 896h4.266666z"  horiz-adv-x="1194" />

    


  </font>
</defs>
</svg>
